<mxfile host="app.diagrams.net" modified="2024-01-26T01:04:12.884Z" agent="Mozilla/5.0 (Windows NT 10.0; Win64; x64) AppleWebKit/537.36 (KHTML, like Gecko) Chrome/120.0.0.0 Safari/537.36" etag="GtNec_ivRm8FpsbpoZao" version="23.0.2" type="github">
  <diagram name="Страница — 1" id="SweO-wndgxrAQUYcjryi">
    <mxGraphModel dx="1687" dy="918" grid="1" gridSize="10" guides="1" tooltips="1" connect="1" arrows="1" fold="1" page="1" pageScale="1" pageWidth="1169" pageHeight="827" math="0" shadow="0">
      <root>
        <mxCell id="0" />
        <mxCell id="1" parent="0" />
        <mxCell id="U5E8J1z2_W7jL_hjABLE-1" value="&lt;font style=&quot;font-size: 24px;&quot;&gt;Client App&lt;/font&gt;" style="rounded=1;whiteSpace=wrap;html=1;fillColor=#ffe6cc;strokeColor=#d79b00;" vertex="1" parent="1">
          <mxGeometry x="40" y="240" width="200" height="120" as="geometry" />
        </mxCell>
        <mxCell id="U5E8J1z2_W7jL_hjABLE-2" value="&lt;font style=&quot;font-size: 24px;&quot;&gt;Driver App&lt;/font&gt;" style="rounded=1;whiteSpace=wrap;html=1;fillColor=#fff2cc;strokeColor=#d6b656;" vertex="1" parent="1">
          <mxGeometry x="40" y="400" width="200" height="120" as="geometry" />
        </mxCell>
        <mxCell id="U5E8J1z2_W7jL_hjABLE-3" value="&lt;span style=&quot;font-size: 24px;&quot;&gt;Owner App&lt;/span&gt;" style="rounded=1;whiteSpace=wrap;html=1;fillColor=#dae8fc;strokeColor=#6c8ebf;" vertex="1" parent="1">
          <mxGeometry x="920" y="80" width="200" height="120" as="geometry" />
        </mxCell>
        <mxCell id="U5E8J1z2_W7jL_hjABLE-4" value="&lt;font style=&quot;font-size: 24px;&quot;&gt;Owner Web Panel&lt;/font&gt;" style="rounded=1;whiteSpace=wrap;html=1;fillColor=#dae8fc;strokeColor=#6c8ebf;" vertex="1" parent="1">
          <mxGeometry x="920.72" y="240" width="200" height="120" as="geometry" />
        </mxCell>
        <mxCell id="U5E8J1z2_W7jL_hjABLE-5" value="&lt;font style=&quot;font-size: 24px;&quot;&gt;Technical Web Panel&lt;/font&gt;" style="rounded=1;whiteSpace=wrap;html=1;fillColor=#f8cecc;strokeColor=#b85450;" vertex="1" parent="1">
          <mxGeometry x="920" y="400" width="200" height="120" as="geometry" />
        </mxCell>
        <mxCell id="U5E8J1z2_W7jL_hjABLE-31" style="edgeStyle=orthogonalEdgeStyle;rounded=0;orthogonalLoop=1;jettySize=auto;html=1;entryX=1;entryY=0.847;entryDx=0;entryDy=0;elbow=vertical;curved=1;entryPerimeter=0;" edge="1" parent="1" source="U5E8J1z2_W7jL_hjABLE-6" target="U5E8J1z2_W7jL_hjABLE-20">
          <mxGeometry relative="1" as="geometry" />
        </mxCell>
        <mxCell id="U5E8J1z2_W7jL_hjABLE-6" value="&lt;span style=&quot;font-size: 24px;&quot;&gt;Support Web Panel&lt;/span&gt;" style="rounded=1;whiteSpace=wrap;html=1;fillColor=#d5e8d4;strokeColor=#82b366;" vertex="1" parent="1">
          <mxGeometry x="920" y="560" width="200" height="120" as="geometry" />
        </mxCell>
        <mxCell id="U5E8J1z2_W7jL_hjABLE-24" value="" style="group" vertex="1" connectable="0" parent="1">
          <mxGeometry x="360" y="240" width="360" height="280" as="geometry" />
        </mxCell>
        <mxCell id="U5E8J1z2_W7jL_hjABLE-20" value="" style="rounded=1;whiteSpace=wrap;html=1;fillColor=#f5f5f5;strokeColor=#666666;fontColor=#333333;" vertex="1" parent="U5E8J1z2_W7jL_hjABLE-24">
          <mxGeometry width="360" height="280" as="geometry" />
        </mxCell>
        <mxCell id="U5E8J1z2_W7jL_hjABLE-26" style="edgeStyle=elbowEdgeStyle;rounded=0;orthogonalLoop=1;jettySize=auto;html=1;startArrow=none;endArrow=none;" edge="1" parent="U5E8J1z2_W7jL_hjABLE-24" source="U5E8J1z2_W7jL_hjABLE-18" target="U5E8J1z2_W7jL_hjABLE-19">
          <mxGeometry relative="1" as="geometry" />
        </mxCell>
        <mxCell id="U5E8J1z2_W7jL_hjABLE-18" value="&lt;span style=&quot;font-size: 24px;&quot;&gt;Rules Model&lt;/span&gt;" style="whiteSpace=wrap;html=1;treeFolding=1;treeMoving=1;newEdgeStyle={&quot;edgeStyle&quot;:&quot;elbowEdgeStyle&quot;,&quot;startArrow&quot;:&quot;none&quot;,&quot;endArrow&quot;:&quot;none&quot;};fillColor=#dae8fc;strokeColor=#6c8ebf;" vertex="1" parent="U5E8J1z2_W7jL_hjABLE-24">
          <mxGeometry x="60" y="40" width="240" height="80" as="geometry" />
        </mxCell>
        <mxCell id="U5E8J1z2_W7jL_hjABLE-19" value="&lt;font style=&quot;font-size: 24px;&quot;&gt;SERVER&lt;/font&gt;" style="whiteSpace=wrap;html=1;treeFolding=1;treeMoving=1;newEdgeStyle={&quot;edgeStyle&quot;:&quot;elbowEdgeStyle&quot;,&quot;startArrow&quot;:&quot;none&quot;,&quot;endArrow&quot;:&quot;none&quot;};fillColor=#e1d5e7;strokeColor=#9673a6;" vertex="1" parent="U5E8J1z2_W7jL_hjABLE-24">
          <mxGeometry x="60" y="160" width="240" height="80" as="geometry" />
        </mxCell>
        <mxCell id="U5E8J1z2_W7jL_hjABLE-27" style="edgeStyle=orthogonalEdgeStyle;rounded=0;orthogonalLoop=1;jettySize=auto;html=1;entryX=0.007;entryY=0.217;entryDx=0;entryDy=0;entryPerimeter=0;" edge="1" parent="1" source="U5E8J1z2_W7jL_hjABLE-1" target="U5E8J1z2_W7jL_hjABLE-20">
          <mxGeometry relative="1" as="geometry" />
        </mxCell>
        <mxCell id="U5E8J1z2_W7jL_hjABLE-28" style="edgeStyle=orthogonalEdgeStyle;rounded=0;orthogonalLoop=1;jettySize=auto;html=1;" edge="1" parent="1" source="U5E8J1z2_W7jL_hjABLE-2">
          <mxGeometry relative="1" as="geometry">
            <mxPoint x="360" y="460" as="targetPoint" />
          </mxGeometry>
        </mxCell>
        <mxCell id="U5E8J1z2_W7jL_hjABLE-29" style="edgeStyle=orthogonalEdgeStyle;rounded=0;orthogonalLoop=1;jettySize=auto;html=1;entryX=1.002;entryY=0.152;entryDx=0;entryDy=0;curved=1;entryPerimeter=0;" edge="1" parent="1" source="U5E8J1z2_W7jL_hjABLE-3" target="U5E8J1z2_W7jL_hjABLE-20">
          <mxGeometry relative="1" as="geometry" />
        </mxCell>
        <mxCell id="U5E8J1z2_W7jL_hjABLE-30" style="edgeStyle=orthogonalEdgeStyle;rounded=0;orthogonalLoop=1;jettySize=auto;html=1;entryX=1.012;entryY=0.432;entryDx=0;entryDy=0;entryPerimeter=0;curved=1;" edge="1" parent="1" source="U5E8J1z2_W7jL_hjABLE-4" target="U5E8J1z2_W7jL_hjABLE-20">
          <mxGeometry relative="1" as="geometry">
            <mxPoint x="720" y="300.08000000000004" as="targetPoint" />
          </mxGeometry>
        </mxCell>
        <mxCell id="U5E8J1z2_W7jL_hjABLE-33" style="edgeStyle=orthogonalEdgeStyle;rounded=0;orthogonalLoop=1;jettySize=auto;html=1;entryX=1;entryY=0.574;entryDx=0;entryDy=0;entryPerimeter=0;curved=1;" edge="1" parent="1" source="U5E8J1z2_W7jL_hjABLE-5" target="U5E8J1z2_W7jL_hjABLE-20">
          <mxGeometry relative="1" as="geometry" />
        </mxCell>
      </root>
    </mxGraphModel>
  </diagram>
</mxfile>
